<svg width="193" height="30" viewBox="0 0 193 30" fill="none" xmlns="http://www.w3.org/2000/svg">
<g clip-path="url(#clip0_1_12)">
<path d="M16.4113 0H13.4835L0.648438 29.7992H3.73751L7.10631 21.8397L8.1892 19.2844L14.9268 3.27784L21.6644 19.2844L22.7473 21.8397L26.1161 29.7992H29.2446L16.4113 0Z" fill="#8CDEDC"/>
<path d="M43.8027 0.0394287H46.6498V29.7992H43.8027V0.0394287Z" fill="url(#paint0_linear_1_12)"/>
<path d="M86.4747 19.2517C86.4747 25.6289 81.9836 30 75.9668 30C72.4778 30 69.5501 28.476 67.8254 25.6289V29.8009H65.0984V0.0394287H67.9455V12.7132C69.7097 9.98623 72.598 8.54295 75.9668 8.54295C81.9836 8.54295 86.4747 12.8745 86.4747 19.2517ZM83.6276 19.2517C83.6276 14.3178 80.2177 11.0296 75.766 11.0296C71.3143 11.0296 67.9043 14.3178 67.9043 19.2517C67.9043 24.1856 71.2731 27.4738 75.766 27.4738C80.2589 27.4738 83.6276 24.1856 83.6276 19.2517Z" fill="url(#paint1_linear_1_12)"/>
<path d="M124.173 19.2517C124.173 25.6289 119.682 30 113.665 30C110.177 30 107.249 28.476 105.524 25.6289V29.8009H102.797V0.0394287H105.644V12.7132C107.408 9.98623 110.297 8.54295 113.665 8.54295C119.682 8.54295 124.173 12.8745 124.173 19.2517ZM121.326 19.2517C121.326 14.3178 117.918 11.0296 113.465 11.0296C109.011 11.0296 105.603 14.3178 105.603 19.2517C105.603 24.1856 108.972 27.4738 113.465 27.4738C117.958 27.4738 121.326 24.1856 121.326 19.2517Z" fill="url(#paint2_linear_1_12)"/>
<path d="M159.507 8.70264V29.7993H156.78V25.9482C155.296 28.5156 152.569 29.9983 149.2 29.9983C143.825 29.9983 140.297 26.9899 140.297 20.9336V8.70264H143.144V20.6539C143.144 25.1451 145.469 27.4327 149.48 27.4327C153.892 27.4327 156.658 24.5856 156.658 19.7718V8.70264H159.505H159.507Z" fill="#C8D96F"/>
<path d="M175.066 27.3931L176.349 25.1467C178.035 26.4699 180.882 27.5133 183.849 27.5133C187.86 27.5133 189.504 26.1489 189.504 24.0638C189.504 18.5687 175.828 22.9003 175.828 14.5581C175.828 11.1086 178.795 8.54297 184.17 8.54297C186.897 8.54297 189.866 9.30494 191.63 10.508L190.386 12.7939C188.541 11.5102 186.336 10.9885 184.17 10.9885C180.36 10.9885 178.675 12.473 178.675 14.4774C178.675 20.1733 192.351 15.8812 192.351 23.9832C192.351 27.6334 189.142 30 183.648 30C180.159 30 176.791 28.8776 175.066 27.3931Z" fill="#C8D96F"/>
</g>
<defs>
<linearGradient id="paint0_linear_1_12" x1="43.8027" y1="14.9202" x2="46.6498" y2="14.9202" gradientUnits="userSpaceOnUse">
<stop stop-color="#8CDEDC"/>
<stop offset="0.99" stop-color="#8CDEDC"/>
</linearGradient>
<linearGradient id="paint1_linear_1_12" x1="65.0984" y1="15.0197" x2="86.4747" y2="15.0197" gradientUnits="userSpaceOnUse">
<stop stop-color="#8CDEDC"/>
<stop offset="0.06" stop-color="#91DDD2"/>
<stop offset="0.17" stop-color="#9EDCB9"/>
<stop offset="0.18" stop-color="#A1DCB5"/>
<stop offset="1" stop-color="#A9DCA7"/>
</linearGradient>
<linearGradient id="paint2_linear_1_12" x1="102.797" y1="15.0197" x2="124.173" y2="15.0197" gradientUnits="userSpaceOnUse">
<stop stop-color="#A9DCA7"/>
<stop offset="0.26" stop-color="#AEDB9D"/>
<stop offset="0.7" stop-color="#BCDA84"/>
<stop offset="1" stop-color="#C8D96F"/>
</linearGradient>
<clipPath id="clip0_1_12">
<rect width="191.704" height="30" fill="white" transform="translate(0.648438)"/>
</clipPath>
</defs>
</svg>
